<mxfile host="Electron" agent="Mozilla/5.0 (Windows NT 10.0; Win64; x64) AppleWebKit/537.36 (KHTML, like Gecko) draw.io/27.0.9 Chrome/134.0.6998.205 Electron/35.4.0 Safari/537.36" version="27.0.9">
  <diagram name="Page-1" id="8VtER9zl0mqQIgjSu1bg">
    <mxGraphModel dx="2276" dy="849" grid="1" gridSize="10" guides="1" tooltips="1" connect="1" arrows="1" fold="1" page="1" pageScale="1" pageWidth="850" pageHeight="1100" background="#ffffff" math="0" shadow="0">
      <root>
        <mxCell id="0" />
        <mxCell id="1" parent="0" />
        <mxCell id="-z0SyM2GRlD8MG_zkwOV-2" value="" style="rounded=0;whiteSpace=wrap;html=1;fillColor=none;dashed=1;" parent="1" vertex="1">
          <mxGeometry x="-710" y="290" width="220" height="560" as="geometry" />
        </mxCell>
        <mxCell id="-z0SyM2GRlD8MG_zkwOV-3" value="Sources" style="rounded=1;whiteSpace=wrap;html=1;fontSize=24;fontStyle=1;strokeColor=none;" parent="1" vertex="1">
          <mxGeometry x="-655" y="260" width="110" height="50" as="geometry" />
        </mxCell>
        <mxCell id="-z0SyM2GRlD8MG_zkwOV-38" style="edgeStyle=orthogonalEdgeStyle;rounded=0;orthogonalLoop=1;jettySize=auto;html=1;entryX=0;entryY=0.25;entryDx=0;entryDy=0;" parent="1" source="-z0SyM2GRlD8MG_zkwOV-4" target="-z0SyM2GRlD8MG_zkwOV-8" edge="1">
          <mxGeometry relative="1" as="geometry" />
        </mxCell>
        <mxCell id="-z0SyM2GRlD8MG_zkwOV-4" value="" style="image;aspect=fixed;html=1;points=[];align=center;fontSize=12;image=img/lib/azure2/general/Folder_Blank.svg;" parent="1" vertex="1">
          <mxGeometry x="-639.43" y="427.77000000000004" width="79.43" height="64.46" as="geometry" />
        </mxCell>
        <mxCell id="-z0SyM2GRlD8MG_zkwOV-5" value="CRM" style="text;html=1;align=center;verticalAlign=middle;whiteSpace=wrap;rounded=0;fontSize=24;fontStyle=1" parent="1" vertex="1">
          <mxGeometry x="-629.71" y="500" width="60" height="30" as="geometry" />
        </mxCell>
        <mxCell id="-z0SyM2GRlD8MG_zkwOV-6" value="" style="image;aspect=fixed;html=1;points=[];align=center;fontSize=12;image=img/lib/azure2/general/Folder_Blank.svg;" parent="1" vertex="1">
          <mxGeometry x="-639.4300000000001" y="658" width="78.86" height="64" as="geometry" />
        </mxCell>
        <mxCell id="-z0SyM2GRlD8MG_zkwOV-7" value="&lt;b&gt;ERP&lt;/b&gt;" style="text;html=1;align=center;verticalAlign=middle;whiteSpace=wrap;rounded=0;fontSize=24;" parent="1" vertex="1">
          <mxGeometry x="-630" y="730" width="60" height="30" as="geometry" />
        </mxCell>
        <mxCell id="-z0SyM2GRlD8MG_zkwOV-8" value="" style="rounded=1;whiteSpace=wrap;html=1;fillColor=#ffe6cc;strokeColor=#d79b00;fillStyle=hatch;" parent="1" vertex="1">
          <mxGeometry x="-400" y="330" width="230" height="520" as="geometry" />
        </mxCell>
        <mxCell id="-z0SyM2GRlD8MG_zkwOV-10" value="Bronze Layer" style="rounded=1;whiteSpace=wrap;html=1;fillColor=#ffe6cc;strokeColor=#d79b00;fontSize=24;fontStyle=1" parent="1" vertex="1">
          <mxGeometry x="-400" y="255" width="230" height="65" as="geometry" />
        </mxCell>
        <mxCell id="6pj9EGTAsQ0h65QZk08M-29" style="edgeStyle=orthogonalEdgeStyle;rounded=0;orthogonalLoop=1;jettySize=auto;html=1;exitX=1;exitY=0.5;exitDx=0;exitDy=0;" parent="1" source="-z0SyM2GRlD8MG_zkwOV-11" target="6pj9EGTAsQ0h65QZk08M-23" edge="1">
          <mxGeometry relative="1" as="geometry" />
        </mxCell>
        <mxCell id="-z0SyM2GRlD8MG_zkwOV-11" value="crm_sales_details" style="rounded=1;whiteSpace=wrap;html=1;fillColor=#ffe6cc;strokeColor=#d79b00;fontSize=16;fontStyle=0" parent="1" vertex="1">
          <mxGeometry x="-390" y="370" width="210" height="47.5" as="geometry" />
        </mxCell>
        <mxCell id="6pj9EGTAsQ0h65QZk08M-30" style="edgeStyle=orthogonalEdgeStyle;rounded=0;orthogonalLoop=1;jettySize=auto;html=1;" parent="1" source="-z0SyM2GRlD8MG_zkwOV-15" target="6pj9EGTAsQ0h65QZk08M-24" edge="1">
          <mxGeometry relative="1" as="geometry" />
        </mxCell>
        <mxCell id="-z0SyM2GRlD8MG_zkwOV-15" value="crm_cust_info" style="rounded=1;whiteSpace=wrap;html=1;fillColor=#ffe6cc;strokeColor=#d79b00;fontSize=16;fontStyle=0" parent="1" vertex="1">
          <mxGeometry x="-390" y="436.25" width="210" height="47.5" as="geometry" />
        </mxCell>
        <mxCell id="6pj9EGTAsQ0h65QZk08M-31" style="edgeStyle=orthogonalEdgeStyle;rounded=0;orthogonalLoop=1;jettySize=auto;html=1;" parent="1" source="-z0SyM2GRlD8MG_zkwOV-16" target="6pj9EGTAsQ0h65QZk08M-25" edge="1">
          <mxGeometry relative="1" as="geometry" />
        </mxCell>
        <mxCell id="-z0SyM2GRlD8MG_zkwOV-16" value="crm_prd_info" style="rounded=1;whiteSpace=wrap;html=1;fillColor=#ffe6cc;strokeColor=#d79b00;fontSize=16;fontStyle=0" parent="1" vertex="1">
          <mxGeometry x="-390" y="500" width="210" height="47.5" as="geometry" />
        </mxCell>
        <mxCell id="6pj9EGTAsQ0h65QZk08M-32" style="edgeStyle=orthogonalEdgeStyle;rounded=0;orthogonalLoop=1;jettySize=auto;html=1;" parent="1" source="-z0SyM2GRlD8MG_zkwOV-28" target="6pj9EGTAsQ0h65QZk08M-26" edge="1">
          <mxGeometry relative="1" as="geometry" />
        </mxCell>
        <mxCell id="-z0SyM2GRlD8MG_zkwOV-28" value="crm_sales_details" style="rounded=1;whiteSpace=wrap;html=1;fillColor=#ffe6cc;strokeColor=#d79b00;fontSize=16;fontStyle=0" parent="1" vertex="1">
          <mxGeometry x="-390" y="600" width="210" height="47.5" as="geometry" />
        </mxCell>
        <mxCell id="6pj9EGTAsQ0h65QZk08M-33" style="edgeStyle=orthogonalEdgeStyle;rounded=0;orthogonalLoop=1;jettySize=auto;html=1;" parent="1" source="-z0SyM2GRlD8MG_zkwOV-29" target="6pj9EGTAsQ0h65QZk08M-27" edge="1">
          <mxGeometry relative="1" as="geometry" />
        </mxCell>
        <mxCell id="-z0SyM2GRlD8MG_zkwOV-29" value="crm_cust_info" style="rounded=1;whiteSpace=wrap;html=1;fillColor=#ffe6cc;strokeColor=#d79b00;fontSize=16;fontStyle=0" parent="1" vertex="1">
          <mxGeometry x="-390" y="666.25" width="210" height="47.5" as="geometry" />
        </mxCell>
        <mxCell id="6pj9EGTAsQ0h65QZk08M-34" style="edgeStyle=orthogonalEdgeStyle;rounded=0;orthogonalLoop=1;jettySize=auto;html=1;" parent="1" source="-z0SyM2GRlD8MG_zkwOV-30" target="6pj9EGTAsQ0h65QZk08M-28" edge="1">
          <mxGeometry relative="1" as="geometry" />
        </mxCell>
        <mxCell id="-z0SyM2GRlD8MG_zkwOV-30" value="crm_prd_info" style="rounded=1;whiteSpace=wrap;html=1;fillColor=#ffe6cc;strokeColor=#d79b00;fontSize=16;fontStyle=0" parent="1" vertex="1">
          <mxGeometry x="-390" y="730" width="210" height="47.5" as="geometry" />
        </mxCell>
        <mxCell id="-z0SyM2GRlD8MG_zkwOV-37" style="edgeStyle=orthogonalEdgeStyle;rounded=0;orthogonalLoop=1;jettySize=auto;html=1;entryX=0.006;entryY=0.818;entryDx=0;entryDy=0;entryPerimeter=0;" parent="1" source="-z0SyM2GRlD8MG_zkwOV-6" target="-z0SyM2GRlD8MG_zkwOV-8" edge="1">
          <mxGeometry relative="1" as="geometry" />
        </mxCell>
        <mxCell id="-z0SyM2GRlD8MG_zkwOV-39" style="edgeStyle=orthogonalEdgeStyle;rounded=0;orthogonalLoop=1;jettySize=auto;html=1;entryX=0.006;entryY=0.126;entryDx=0;entryDy=0;entryPerimeter=0;" parent="1" source="-z0SyM2GRlD8MG_zkwOV-4" target="-z0SyM2GRlD8MG_zkwOV-8" edge="1">
          <mxGeometry relative="1" as="geometry" />
        </mxCell>
        <mxCell id="-z0SyM2GRlD8MG_zkwOV-42" style="edgeStyle=orthogonalEdgeStyle;rounded=0;orthogonalLoop=1;jettySize=auto;html=1;entryX=0.006;entryY=0.571;entryDx=0;entryDy=0;entryPerimeter=0;" parent="1" source="-z0SyM2GRlD8MG_zkwOV-6" target="-z0SyM2GRlD8MG_zkwOV-8" edge="1">
          <mxGeometry relative="1" as="geometry" />
        </mxCell>
        <mxCell id="-z0SyM2GRlD8MG_zkwOV-44" style="edgeStyle=orthogonalEdgeStyle;rounded=0;orthogonalLoop=1;jettySize=auto;html=1;entryX=0;entryY=0.692;entryDx=0;entryDy=0;entryPerimeter=0;" parent="1" source="-z0SyM2GRlD8MG_zkwOV-6" target="-z0SyM2GRlD8MG_zkwOV-8" edge="1">
          <mxGeometry relative="1" as="geometry" />
        </mxCell>
        <mxCell id="-z0SyM2GRlD8MG_zkwOV-45" style="edgeStyle=orthogonalEdgeStyle;rounded=0;orthogonalLoop=1;jettySize=auto;html=1;entryX=0.006;entryY=0.373;entryDx=0;entryDy=0;entryPerimeter=0;" parent="1" source="-z0SyM2GRlD8MG_zkwOV-4" target="-z0SyM2GRlD8MG_zkwOV-8" edge="1">
          <mxGeometry relative="1" as="geometry" />
        </mxCell>
        <mxCell id="6pj9EGTAsQ0h65QZk08M-21" value="" style="rounded=1;whiteSpace=wrap;html=1;fillColor=#f5f5f5;strokeColor=#666666;fillStyle=hatch;fontColor=#333333;" parent="1" vertex="1">
          <mxGeometry x="-70" y="330" width="230" height="520" as="geometry" />
        </mxCell>
        <mxCell id="6pj9EGTAsQ0h65QZk08M-22" value="Silver Layer" style="rounded=1;whiteSpace=wrap;html=1;fillColor=#f5f5f5;strokeColor=#666666;fontSize=24;fontStyle=1;fontColor=#333333;" parent="1" vertex="1">
          <mxGeometry x="-70" y="255" width="230" height="65" as="geometry" />
        </mxCell>
        <mxCell id="6pj9EGTAsQ0h65QZk08M-23" value="crm_sales_details" style="rounded=1;whiteSpace=wrap;html=1;fillColor=#f5f5f5;strokeColor=#666666;fontSize=16;fontStyle=0;fontColor=#333333;" parent="1" vertex="1">
          <mxGeometry x="-60" y="370" width="210" height="47.5" as="geometry" />
        </mxCell>
        <mxCell id="6pj9EGTAsQ0h65QZk08M-24" value="crm_cust_info" style="rounded=1;whiteSpace=wrap;html=1;fillColor=#f5f5f5;strokeColor=#666666;fontSize=16;fontStyle=0;fontColor=#333333;" parent="1" vertex="1">
          <mxGeometry x="-60" y="436.25" width="210" height="47.5" as="geometry" />
        </mxCell>
        <mxCell id="6pj9EGTAsQ0h65QZk08M-25" value="crm_prd_info" style="rounded=1;whiteSpace=wrap;html=1;fillColor=#f5f5f5;strokeColor=#666666;fontSize=16;fontStyle=0;fontColor=#333333;" parent="1" vertex="1">
          <mxGeometry x="-60" y="500" width="210" height="47.5" as="geometry" />
        </mxCell>
        <mxCell id="6pj9EGTAsQ0h65QZk08M-26" value="crm_sales_details" style="rounded=1;whiteSpace=wrap;html=1;fillColor=#f5f5f5;strokeColor=#666666;fontSize=16;fontStyle=0;fontColor=#333333;" parent="1" vertex="1">
          <mxGeometry x="-60" y="600" width="210" height="47.5" as="geometry" />
        </mxCell>
        <mxCell id="6pj9EGTAsQ0h65QZk08M-27" value="crm_cust_info" style="rounded=1;whiteSpace=wrap;html=1;fillColor=#f5f5f5;strokeColor=#666666;fontSize=16;fontStyle=0;fontColor=#333333;" parent="1" vertex="1">
          <mxGeometry x="-60" y="666.25" width="210" height="47.5" as="geometry" />
        </mxCell>
        <mxCell id="6pj9EGTAsQ0h65QZk08M-28" value="crm_prd_info" style="rounded=1;whiteSpace=wrap;html=1;fillColor=#f5f5f5;strokeColor=#666666;fontSize=16;fontStyle=0;fontColor=#333333;" parent="1" vertex="1">
          <mxGeometry x="-60" y="730" width="210" height="47.5" as="geometry" />
        </mxCell>
        <mxCell id="-3F2Zj9oOCbZ74SJQN_R-7" value="" style="rounded=1;whiteSpace=wrap;html=1;fillColor=#fff2cc;strokeColor=#d6b656;fillStyle=hatch;" parent="1" vertex="1">
          <mxGeometry x="270" y="340" width="230" height="520" as="geometry" />
        </mxCell>
        <mxCell id="-3F2Zj9oOCbZ74SJQN_R-8" value="Gold Layer" style="rounded=1;whiteSpace=wrap;html=1;fillColor=#fff2cc;strokeColor=#d6b656;fontSize=24;fontStyle=1;" parent="1" vertex="1">
          <mxGeometry x="270" y="253" width="230" height="65" as="geometry" />
        </mxCell>
        <mxCell id="-3F2Zj9oOCbZ74SJQN_R-9" value="fact_sales" style="rounded=1;whiteSpace=wrap;html=1;fillColor=#fff2cc;strokeColor=#d6b656;fontSize=16;fontStyle=0;" parent="1" vertex="1">
          <mxGeometry x="280" y="427.77" width="210" height="47.5" as="geometry" />
        </mxCell>
        <mxCell id="-3F2Zj9oOCbZ74SJQN_R-10" value="dim_customers" style="rounded=1;whiteSpace=wrap;html=1;fillColor=#fff2cc;strokeColor=#d6b656;fontSize=16;fontStyle=0;" parent="1" vertex="1">
          <mxGeometry x="280" y="560" width="210" height="47.5" as="geometry" />
        </mxCell>
        <mxCell id="-3F2Zj9oOCbZ74SJQN_R-11" value="dim_products" style="rounded=1;whiteSpace=wrap;html=1;fillColor=#fff2cc;strokeColor=#d6b656;fontSize=16;fontStyle=0;" parent="1" vertex="1">
          <mxGeometry x="280" y="630" width="210" height="47.5" as="geometry" />
        </mxCell>
        <mxCell id="-3F2Zj9oOCbZ74SJQN_R-15" value="" style="endArrow=classic;html=1;rounded=0;" parent="1" source="6pj9EGTAsQ0h65QZk08M-23" target="-3F2Zj9oOCbZ74SJQN_R-9" edge="1">
          <mxGeometry width="50" height="50" relative="1" as="geometry">
            <mxPoint x="140" y="410" as="sourcePoint" />
            <mxPoint x="260" y="410" as="targetPoint" />
          </mxGeometry>
        </mxCell>
        <mxCell id="-3F2Zj9oOCbZ74SJQN_R-16" value="" style="endArrow=classic;html=1;rounded=0;exitX=1;exitY=0.5;exitDx=0;exitDy=0;entryX=0;entryY=0.25;entryDx=0;entryDy=0;jumpStyle=gap;" parent="1" source="6pj9EGTAsQ0h65QZk08M-24" target="-3F2Zj9oOCbZ74SJQN_R-10" edge="1">
          <mxGeometry width="50" height="50" relative="1" as="geometry">
            <mxPoint x="150" y="453.27" as="sourcePoint" />
            <mxPoint x="280" y="475.27" as="targetPoint" />
          </mxGeometry>
        </mxCell>
        <mxCell id="-3F2Zj9oOCbZ74SJQN_R-17" value="" style="endArrow=classic;html=1;rounded=0;exitX=1;exitY=0.5;exitDx=0;exitDy=0;entryX=0;entryY=0.5;entryDx=0;entryDy=0;jumpStyle=gap;" parent="1" source="6pj9EGTAsQ0h65QZk08M-26" target="-3F2Zj9oOCbZ74SJQN_R-10" edge="1">
          <mxGeometry width="50" height="50" relative="1" as="geometry">
            <mxPoint x="170" y="625.5" as="sourcePoint" />
            <mxPoint x="300" y="647.5" as="targetPoint" />
          </mxGeometry>
        </mxCell>
        <mxCell id="-3F2Zj9oOCbZ74SJQN_R-18" value="" style="endArrow=classic;html=1;rounded=0;exitX=1;exitY=0.5;exitDx=0;exitDy=0;entryX=0;entryY=0.5;entryDx=0;entryDy=0;jumpStyle=gap;" parent="1" source="6pj9EGTAsQ0h65QZk08M-27" target="-3F2Zj9oOCbZ74SJQN_R-10" edge="1">
          <mxGeometry width="50" height="50" relative="1" as="geometry">
            <mxPoint x="180" y="691.75" as="sourcePoint" />
            <mxPoint x="310" y="713.75" as="targetPoint" />
          </mxGeometry>
        </mxCell>
        <mxCell id="-3F2Zj9oOCbZ74SJQN_R-19" value="" style="endArrow=classic;html=1;rounded=0;entryX=0;entryY=0.5;entryDx=0;entryDy=0;jumpStyle=gap;exitX=1;exitY=0.5;exitDx=0;exitDy=0;" parent="1" source="6pj9EGTAsQ0h65QZk08M-25" target="-3F2Zj9oOCbZ74SJQN_R-11" edge="1">
          <mxGeometry width="50" height="50" relative="1" as="geometry">
            <mxPoint x="180" y="550" as="sourcePoint" />
            <mxPoint x="310" y="572" as="targetPoint" />
          </mxGeometry>
        </mxCell>
        <mxCell id="-3F2Zj9oOCbZ74SJQN_R-20" value="" style="endArrow=classic;html=1;rounded=0;exitX=1;exitY=0.5;exitDx=0;exitDy=0;entryX=0;entryY=0.5;entryDx=0;entryDy=0;jumpStyle=gap;" parent="1" source="6pj9EGTAsQ0h65QZk08M-28" target="-3F2Zj9oOCbZ74SJQN_R-11" edge="1">
          <mxGeometry width="50" height="50" relative="1" as="geometry">
            <mxPoint x="180" y="742.75" as="sourcePoint" />
            <mxPoint x="310" y="764.75" as="targetPoint" />
          </mxGeometry>
        </mxCell>
        <mxCell id="-3F2Zj9oOCbZ74SJQN_R-21" value="&lt;b&gt;Data Flow Diagram&lt;/b&gt;" style="text;html=1;align=center;verticalAlign=middle;whiteSpace=wrap;rounded=0;fontSize=42;" parent="1" vertex="1">
          <mxGeometry x="-810" y="80" width="400" height="30" as="geometry" />
        </mxCell>
      </root>
    </mxGraphModel>
  </diagram>
</mxfile>
